STARTFONT 2.1
COMMENT $XConsortium: luBIS10.bdf,v 1.8 94/04/02 15:58:30 gildea Exp $
COMMENT  (c) Copyright Bigelow & Holmes 1986, 1985. Lucida is a registered
COMMENT  trademark of Bigelow & Holmes. See LEGAL NOTICE file for terms 
COMMENT  of the license. 
COMMENT GRID 0010 0010 0200 0200
FONT -RFX-Serene-Bold-I-Normal-Sans-10-100-75-75-P-67-windows-1251
SIZE 10 72 72
FONTBOUNDINGBOX 14 11 -1 -2
STARTPROPERTIES 24
FONTNAME_REGISTRY ""
FOUNDRY "RFX"
FAMILY_NAME "Serene"
WEIGHT_NAME "Bold"
SLANT "I"
SETWIDTH_NAME "Normal"
ADD_STYLE_NAME "Sans"
PIXEL_SIZE 10
POINT_SIZE 100
RESOLUTION_X 75
RESOLUTION_Y 75
SPACING "P"
AVERAGE_WIDTH 67
CHARSET_REGISTRY "windows"
CHARSET_ENCODING "1251"
FONT_ASCENT 9
FONT_DESCENT 2
DEFAULT_CHAR 32
COPYRIGHT "Copyright Bigelow & Holmes 1986, 1985."
FACE_NAME "Lucida Sans Bold Italic"
COPYRIGHT2 "Cyrillic and Euro glyphs copyright 2000 Dmitry Yu. Bolkhovityanov, bolkhov@inp.nsk.su"
SOURCEDATE "Tue Aug  1 13:44:35 2000"
PKGVERSION "1.1"
ASSEMBLER "cvtbdf.pl (Linux)"
ENDPROPERTIES
CHARS 244
STARTCHAR space
ENCODING 32
SWIDTH 343 0
DWIDTH 3 0
BBX 0 0 0 0
BITMAP
ENDCHAR
STARTCHAR exclam
ENCODING 33
SWIDTH 343 0
DWIDTH 4 0
BBX 4 7 1 0
BITMAP
30
30
60
60
00
C0
C0
ENDCHAR
STARTCHAR quotedbl
ENCODING 34
SWIDTH 530 0
DWIDTH 5 0
BBX 3 3 2 5
BITMAP
A0
A0
A0
ENDCHAR
STARTCHAR numbersign
ENCODING 35
SWIDTH 687 0
DWIDTH 7 0
BBX 8 7 0 0
BITMAP
1A
1A
7B
34
F6
68
68
ENDCHAR
STARTCHAR dollar
ENCODING 36
SWIDTH 687 0
DWIDTH 7 0
BBX 7 9 1 -1
BITMAP
08
3E
68
78
38
3C
2C
F8
20
ENDCHAR
STARTCHAR percent
ENCODING 37
SWIDTH 908 0
DWIDTH 9 0
BBX 8 7 1 0
BITMAP
62
B6
6C
18
36
6B
46
ENDCHAR
STARTCHAR ampersand
ENCODING 38
SWIDTH 816 0
DWIDTH 8 0
BBX 8 7 1 0
BITMAP
38
6C
38
73
DA
CC
76
ENDCHAR
STARTCHAR quotesingle
ENCODING 39
SWIDTH 265 0
DWIDTH 3 0
BBX 1 3 2 5
BITMAP
80
80
80
ENDCHAR
STARTCHAR parenleft
ENCODING 40
SWIDTH 386 0
DWIDTH 4 0
BBX 5 9 1 -1
BITMAP
18
30
60
60
C0
C0
C0
C0
60
ENDCHAR
STARTCHAR parenright
ENCODING 41
SWIDTH 386 0
DWIDTH 4 0
BBX 5 9 0 -1
BITMAP
30
18
18
18
18
30
30
60
C0
ENDCHAR
STARTCHAR asterisk
ENCODING 42
SWIDTH 464 0
DWIDTH 5 0
BBX 6 3 0 4
BITMAP
6C
30
D8
ENDCHAR
STARTCHAR plus
ENCODING 43
SWIDTH 687 0
DWIDTH 7 0
BBX 6 5 1 1
BITMAP
10
10
FC
20
20
ENDCHAR
STARTCHAR comma
ENCODING 44
SWIDTH 343 0
DWIDTH 3 0
BBX 3 3 0 -1
BITMAP
60
60
C0
ENDCHAR
STARTCHAR minus
ENCODING 45
SWIDTH 687 0
DWIDTH 7 0
BBX 6 1 1 3
BITMAP
FC
ENDCHAR
STARTCHAR period
ENCODING 46
SWIDTH 343 0
DWIDTH 3 0
BBX 2 2 1 0
BITMAP
C0
C0
ENDCHAR
STARTCHAR slash
ENCODING 47
SWIDTH 596 0
DWIDTH 6 0
BBX 6 9 0 -1
BITMAP
0C
0C
18
18
30
60
60
C0
C0
ENDCHAR
STARTCHAR zero
ENCODING 48
SWIDTH 687 0
DWIDTH 7 0
BBX 6 7 1 0
BITMAP
38
6C
4C
CC
C8
D8
70
ENDCHAR
STARTCHAR one
ENCODING 49
SWIDTH 687 0
DWIDTH 7 0
BBX 4 7 2 0
BITMAP
30
F0
30
70
60
60
60
ENDCHAR
STARTCHAR two
ENCODING 50
SWIDTH 687 0
DWIDTH 7 0
BBX 6 7 1 0
BITMAP
38
4C
0C
18
60
F8
F8
ENDCHAR
STARTCHAR three
ENCODING 51
SWIDTH 687 0
DWIDTH 7 0
BBX 6 7 1 0
BITMAP
38
4C
0C
38
18
98
70
ENDCHAR
STARTCHAR four
ENCODING 52
SWIDTH 687 0
DWIDTH 7 0
BBX 6 7 1 0
BITMAP
18
38
58
98
FC
30
30
ENDCHAR
STARTCHAR five
ENCODING 53
SWIDTH 687 0
DWIDTH 7 0
BBX 6 7 1 0
BITMAP
3C
7C
40
70
18
98
70
ENDCHAR
STARTCHAR six
ENCODING 54
SWIDTH 687 0
DWIDTH 7 0
BBX 7 7 1 0
BITMAP
1C
32
60
78
CC
CC
78
ENDCHAR
STARTCHAR seven
ENCODING 55
SWIDTH 687 0
DWIDTH 7 0
BBX 6 7 2 0
BITMAP
7C
7C
08
30
60
C0
C0
ENDCHAR
STARTCHAR eight
ENCODING 56
SWIDTH 687 0
DWIDTH 7 0
BBX 7 7 1 0
BITMAP
3C
66
66
7C
CC
CC
78
ENDCHAR
STARTCHAR nine
ENCODING 57
SWIDTH 687 0
DWIDTH 7 0
BBX 7 7 1 0
BITMAP
3C
66
66
3C
0C
98
70
ENDCHAR
STARTCHAR colon
ENCODING 58
SWIDTH 343 0
DWIDTH 4 0
BBX 3 6 1 0
BITMAP
60
60
00
00
C0
C0
ENDCHAR
STARTCHAR semicolon
ENCODING 59
SWIDTH 343 0
DWIDTH 4 0
BBX 4 7 0 -1
BITMAP
30
30
00
00
60
60
C0
ENDCHAR
STARTCHAR less
ENCODING 60
SWIDTH 687 0
DWIDTH 7 0
BBX 6 5 1 1
BITMAP
1C
70
C0
60
30
ENDCHAR
STARTCHAR equal
ENCODING 61
SWIDTH 687 0
DWIDTH 7 0
BBX 6 3 1 2
BITMAP
7C
00
F8
ENDCHAR
STARTCHAR greater
ENCODING 62
SWIDTH 687 0
DWIDTH 7 0
BBX 6 5 1 1
BITMAP
30
18
0C
38
E0
ENDCHAR
STARTCHAR question
ENCODING 63
SWIDTH 539 0
DWIDTH 6 0
BBX 5 7 2 0
BITMAP
70
98
18
70
00
C0
C0
ENDCHAR
STARTCHAR at
ENCODING 64
SWIDTH 833 0
DWIDTH 9 0
BBX 8 7 1 0
BITMAP
1E
63
4F
96
9B
80
7C
ENDCHAR
STARTCHAR A
ENCODING 65
SWIDTH 771 0
DWIDTH 8 0
BBX 6 7 1 0
BITMAP
0C
1C
2C
6C
7C
CC
CC
ENDCHAR
STARTCHAR B
ENCODING 66
SWIDTH 660 0
DWIDTH 7 0
BBX 6 7 1 0
BITMAP
78
6C
6C
F8
CC
CC
F8
ENDCHAR
STARTCHAR C
ENCODING 67
SWIDTH 737 0
DWIDTH 7 0
BBX 6 7 1 0
BITMAP
1C
70
60
C0
C0
E0
78
ENDCHAR
STARTCHAR D
ENCODING 68
SWIDTH 822 0
DWIDTH 8 0
BBX 7 7 1 0
BITMAP
7C
66
66
E6
CC
CC
F0
ENDCHAR
STARTCHAR E
ENCODING 69
SWIDTH 642 0
DWIDTH 7 0
BBX 6 7 1 0
BITMAP
7C
60
60
F8
C0
C0
F8
ENDCHAR
STARTCHAR F
ENCODING 70
SWIDTH 614 0
DWIDTH 6 0
BBX 6 7 1 0
BITMAP
7C
60
60
F8
C0
C0
C0
ENDCHAR
STARTCHAR G
ENCODING 71
SWIDTH 755 0
DWIDTH 8 0
BBX 7 7 1 0
BITMAP
1E
70
60
CC
CC
EC
78
ENDCHAR
STARTCHAR H
ENCODING 72
SWIDTH 813 0
DWIDTH 8 0
BBX 7 7 1 0
BITMAP
66
66
66
FE
CC
CC
CC
ENDCHAR
STARTCHAR I
ENCODING 73
SWIDTH 361 0
DWIDTH 4 0
BBX 3 7 1 0
BITMAP
60
60
60
E0
C0
C0
C0
ENDCHAR
STARTCHAR J
ENCODING 74
SWIDTH 502 0
DWIDTH 5 0
BBX 5 8 0 -1
BITMAP
18
18
18
38
30
30
70
E0
ENDCHAR
STARTCHAR K
ENCODING 75
SWIDTH 753 0
DWIDTH 8 0
BBX 7 7 1 0
BITMAP
66
6C
78
F0
D8
CC
C6
ENDCHAR
STARTCHAR L
ENCODING 76
SWIDTH 623 0
DWIDTH 6 0
BBX 5 7 1 0
BITMAP
60
60
60
E0
C0
C0
F8
ENDCHAR
STARTCHAR M
ENCODING 77
SWIDTH 940 0
DWIDTH 10 0
BBX 9 7 1 0
BITMAP
6180
7380
7D80
D980
9B00
9300
8300
ENDCHAR
STARTCHAR N
ENCODING 78
SWIDTH 789 0
DWIDTH 8 0
BBX 7 7 1 0
BITMAP
62
72
72
5C
DC
8C
8C
ENDCHAR
STARTCHAR O
ENCODING 79
SWIDTH 855 0
DWIDTH 9 0
BBX 8 7 1 0
BITMAP
1E
73
63
C3
C6
CE
78
ENDCHAR
STARTCHAR P
ENCODING 80
SWIDTH 645 0
DWIDTH 7 0
BBX 7 7 1 0
BITMAP
7C
66
66
F8
C0
C0
C0
ENDCHAR
STARTCHAR Q
ENCODING 81
SWIDTH 855 0
DWIDTH 9 0
BBX 8 9 1 -2
BITMAP
1E
73
63
C3
C6
CE
78
0E
03
ENDCHAR
STARTCHAR R
ENCODING 82
SWIDTH 708 0
DWIDTH 8 0
BBX 7 7 1 0
BITMAP
7C
66
66
FC
D8
CC
CC
ENDCHAR
STARTCHAR S
ENCODING 83
SWIDTH 639 0
DWIDTH 7 0
BBX 6 7 1 0
BITMAP
3C
60
60
30
18
18
F0
ENDCHAR
STARTCHAR T
ENCODING 84
SWIDTH 747 0
DWIDTH 8 0
BBX 6 7 2 0
BITMAP
FC
30
30
70
60
60
60
ENDCHAR
STARTCHAR U
ENCODING 85
SWIDTH 759 0
DWIDTH 8 0
BBX 7 7 1 0
BITMAP
66
66
66
CC
CC
C8
70
ENDCHAR
STARTCHAR V
ENCODING 86
SWIDTH 765 0
DWIDTH 8 0
BBX 6 7 2 0
BITMAP
CC
CC
C8
D8
D0
E0
C0
ENDCHAR
STARTCHAR W
ENCODING 87
SWIDTH 991 0
DWIDTH 11 0
BBX 10 7 2 0
BITMAP
C0C0
CCC0
CC80
DD80
DD00
EE00
CC00
ENDCHAR
STARTCHAR X
ENCODING 88
SWIDTH 696 0
DWIDTH 7 0
BBX 8 7 0 0
BITMAP
33
36
3C
18
3C
6C
CC
ENDCHAR
STARTCHAR Y
ENCODING 89
SWIDTH 681 0
DWIDTH 7 0
BBX 6 7 2 0
BITMAP
CC
CC
D8
70
60
60
60
ENDCHAR
STARTCHAR Z
ENCODING 90
SWIDTH 687 0
DWIDTH 7 0
BBX 6 7 1 0
BITMAP
7C
1C
18
30
60
E0
F8
ENDCHAR
STARTCHAR bracketleft
ENCODING 91
SWIDTH 386 0
DWIDTH 4 0
BBX 5 9 0 -1
BITMAP
38
30
30
60
60
60
C0
C0
E0
ENDCHAR
STARTCHAR backslash
ENCODING 92
SWIDTH 566 0
DWIDTH 6 0
BBX 4 9 1 -1
BITMAP
C0
C0
C0
60
60
60
30
30
30
ENDCHAR
STARTCHAR bracketright
ENCODING 93
SWIDTH 386 0
DWIDTH 4 0
BBX 5 9 0 -1
BITMAP
38
18
18
30
30
30
60
60
E0
ENDCHAR
STARTCHAR asciicircum
ENCODING 94
SWIDTH 687 0
DWIDTH 7 0
BBX 6 5 1 1
BITMAP
0C
1C
2C
4C
8C
ENDCHAR
STARTCHAR underscore
ENCODING 95
SWIDTH 500 0
DWIDTH 8 0
BBX 6 1 1 -1
BITMAP
FC
ENDCHAR
STARTCHAR grave
ENCODING 96
SWIDTH 663 0
DWIDTH 7 0
BBX 3 2 4 7
BITMAP
C0
60
ENDCHAR
STARTCHAR a
ENCODING 97
SWIDTH 681 0
DWIDTH 7 0
BBX 6 6 1 0
BITMAP
3C
6C
CC
D8
F8
D8
ENDCHAR
STARTCHAR b
ENCODING 98
SWIDTH 681 0
DWIDTH 7 0
BBX 6 8 1 0
BITMAP
30
30
2C
7C
6C
CC
D8
F0
ENDCHAR
STARTCHAR c
ENCODING 99
SWIDTH 548 0
DWIDTH 6 0
BBX 5 6 1 0
BITMAP
38
60
C0
C0
C0
70
ENDCHAR
STARTCHAR d
ENCODING 100
SWIDTH 681 0
DWIDTH 7 0
BBX 7 8 1 0
BITMAP
06
06
3C
6C
CC
D8
F8
D8
ENDCHAR
STARTCHAR e
ENCODING 101
SWIDTH 612 0
DWIDTH 6 0
BBX 5 6 1 0
BITMAP
38
58
D8
F0
C0
70
ENDCHAR
STARTCHAR f
ENCODING 102
SWIDTH 464 0
DWIDTH 6 0
BBX 6 10 1 -2
BITMAP
1C
30
7C
30
60
60
60
C0
C0
C0
ENDCHAR
STARTCHAR g
ENCODING 103
SWIDTH 674 0
DWIDTH 7 0
BBX 6 8 1 -2
BITMAP
3C
6C
CC
D8
F8
D8
18
F0
ENDCHAR
STARTCHAR h
ENCODING 104
SWIDTH 675 0
DWIDTH 7 0
BBX 6 8 1 0
BITMAP
30
30
6C
7C
6C
C8
D8
D8
ENDCHAR
STARTCHAR i
ENCODING 105
SWIDTH 343 0
DWIDTH 4 0
BBX 4 8 1 0
BITMAP
30
00
60
60
60
C0
C0
C0
ENDCHAR
STARTCHAR j
ENCODING 106
SWIDTH 407 0
DWIDTH 4 0
BBX 6 10 -1 -2
BITMAP
0C
00
18
18
18
30
30
30
60
E0
ENDCHAR
STARTCHAR k
ENCODING 107
SWIDTH 666 0
DWIDTH 7 0
BBX 7 8 1 0
BITMAP
30
30
66
6C
78
F0
D8
CC
ENDCHAR
STARTCHAR l
ENCODING 108
SWIDTH 343 0
DWIDTH 4 0
BBX 4 8 1 0
BITMAP
30
30
60
60
60
C0
C0
C0
ENDCHAR
STARTCHAR m
ENCODING 109
SWIDTH 991 0
DWIDTH 10 0
BBX 9 6 1 0
BITMAP
6D80
7F80
6D80
C900
DB00
DB00
ENDCHAR
STARTCHAR n
ENCODING 110
SWIDTH 675 0
DWIDTH 7 0
BBX 6 6 1 0
BITMAP
6C
7C
6C
C8
D8
D8
ENDCHAR
STARTCHAR o
ENCODING 111
SWIDTH 663 0
DWIDTH 7 0
BBX 6 6 1 0
BITMAP
38
6C
CC
CC
D8
70
ENDCHAR
STARTCHAR p
ENCODING 112
SWIDTH 681 0
DWIDTH 7 0
BBX 7 8 0 -2
BITMAP
36
3E
36
66
6C
78
C0
C0
ENDCHAR
STARTCHAR q
ENCODING 113
SWIDTH 681 0
DWIDTH 7 0
BBX 6 8 1 -2
BITMAP
3C
6C
CC
D8
F8
D8
30
30
ENDCHAR
STARTCHAR r
ENCODING 114
SWIDTH 542 0
DWIDTH 6 0
BBX 5 6 1 0
BITMAP
68
78
60
C0
C0
C0
ENDCHAR
STARTCHAR s
ENCODING 115
SWIDTH 527 0
DWIDTH 6 0
BBX 6 6 0 0
BITMAP
3C
60
70
38
18
F0
ENDCHAR
STARTCHAR t
ENCODING 116
SWIDTH 437 0
DWIDTH 5 0
BBX 5 7 1 0
BITMAP
30
F8
60
60
C0
C0
E0
ENDCHAR
STARTCHAR u
ENCODING 117
SWIDTH 675 0
DWIDTH 7 0
BBX 6 6 1 0
BITMAP
6C
6C
4C
D8
F8
D8
ENDCHAR
STARTCHAR v
ENCODING 118
SWIDTH 630 0
DWIDTH 7 0
BBX 6 6 2 0
BITMAP
CC
CC
D8
D0
E0
C0
ENDCHAR
STARTCHAR w
ENCODING 119
SWIDTH 878 0
DWIDTH 9 0
BBX 8 6 1 0
BITMAP
C3
DB
DB
DA
FC
D8
ENDCHAR
STARTCHAR x
ENCODING 120
SWIDTH 563 0
DWIDTH 6 0
BBX 6 6 0 0
BITMAP
6C
6C
38
70
D8
D8
ENDCHAR
STARTCHAR y
ENCODING 121
SWIDTH 633 0
DWIDTH 7 0
BBX 7 8 0 -2
BITMAP
66
66
66
6C
68
70
60
C0
ENDCHAR
STARTCHAR z
ENCODING 122
SWIDTH 630 0
DWIDTH 7 0
BBX 6 6 1 0
BITMAP
7C
0C
38
70
C0
F8
ENDCHAR
STARTCHAR braceleft
ENCODING 123
SWIDTH 386 0
DWIDTH 4 0
BBX 6 9 0 -1
BITMAP
0C
18
30
30
C0
20
60
60
30
ENDCHAR
STARTCHAR bar
ENCODING 124
SWIDTH 259 0
DWIDTH 4 0
BBX 4 9 1 -1
BITMAP
30
30
20
60
60
60
40
C0
C0
ENDCHAR
STARTCHAR braceright
ENCODING 125
SWIDTH 386 0
DWIDTH 4 0
BBX 6 9 0 -1
BITMAP
30
18
18
10
0C
30
30
60
C0
ENDCHAR
STARTCHAR asciitilde
ENCODING 126
SWIDTH 687 0
DWIDTH 7 0
BBX 6 2 1 3
BITMAP
74
B8
ENDCHAR
STARTCHAR afii10051
ENCODING 128
SWIDTH 1000 0
DWIDTH 10 0
BBX 7 7 2 0
BITMAP
FC
30
3C
76
66
66
6C
ENDCHAR
STARTCHAR afii10052
ENCODING 129
SWIDTH 600 0
DWIDTH 6 0
BBX 6 9 1 0
BITMAP
0C
18
00
7C
60
E0
C0
C0
C0
ENDCHAR
STARTCHAR quotesinglbase
ENCODING 130
SWIDTH 265 0
DWIDTH 3 0
BBX 3 3 0 -1
BITMAP
60
60
C0
ENDCHAR
STARTCHAR afii10100
ENCODING 131
SWIDTH 600 0
DWIDTH 6 0
BBX 5 9 1 0
BITMAP
18
30
00
70
18
30
60
C0
70
ENDCHAR
STARTCHAR quotedblbase
ENCODING 132
SWIDTH 530 0
DWIDTH 6 0
BBX 6 3 0 -1
BITMAP
6C
6C
D8
ENDCHAR
STARTCHAR ellipsis
ENCODING 133
SWIDTH 1000 0
DWIDTH 7 0
BBX 5 2 1 0
BITMAP
88
88
ENDCHAR
STARTCHAR dagger
ENCODING 134
SWIDTH 687 0
DWIDTH 7 0
BBX 5 8 2 -1
BITMAP
30
30
F8
60
60
C0
C0
C0
ENDCHAR
STARTCHAR daggerdbl
ENCODING 135
SWIDTH 687 0
DWIDTH 7 0
BBX 6 8 1 -1
BITMAP
18
18
7C
30
30
F8
60
60
ENDCHAR
STARTCHAR Euro
ENCODING 136
SWIDTH 700 0
DWIDTH 7 0
BBX 7 7 0 0
BITMAP
0E
38
3C
60
F8
70
3C
ENDCHAR
STARTCHAR perthousand
ENCODING 137
SWIDTH 1332 0
DWIDTH 13 0
BBX 12 7 1 0
BITMAP
6200
B600
6C00
1800
3660
6BB0
4660
ENDCHAR
STARTCHAR afii10058
ENCODING 138
SWIDTH 1100 0
DWIDTH 11 0
BBX 11 7 0 0
BITMAP
1F00
1B00
1B00
37C0
3660
6660
C7C0
ENDCHAR
STARTCHAR guilsinglleft
ENCODING 139
SWIDTH 386 0
DWIDTH 4 0
BBX 4 5 0 1
BITMAP
30
60
C0
60
20
ENDCHAR
STARTCHAR afii10059
ENCODING 140
SWIDTH 1100 0
DWIDTH 11 0
BBX 10 7 1 0
BITMAP
6600
6600
6600
FF80
CCC0
CCC0
CF80
ENDCHAR
STARTCHAR afii10061
ENCODING 141
SWIDTH 800 0
DWIDTH 8 0
BBX 7 9 1 0
BITMAP
0C
18
00
66
6C
F8
D8
CC
C6
ENDCHAR
STARTCHAR afii10060
ENCODING 142
SWIDTH 1000 0
DWIDTH 10 0
BBX 7 7 2 0
BITMAP
FC
30
3C
76
66
66
66
ENDCHAR
STARTCHAR afii10145
ENCODING 143
SWIDTH 700 0
DWIDTH 7 0
BBX 6 7 1 -1
BITMAP
6C
6C
4C
D8
F8
D8
60
ENDCHAR
STARTCHAR afii10099
ENCODING 144
SWIDTH 700 0
DWIDTH 7 0
BBX 6 10 1 -2
BITMAP
30
F8
6C
7C
6C
C8
D8
D8
10
30
ENDCHAR
STARTCHAR quoteleft
ENCODING 145
SWIDTH 265 0
DWIDTH 3 0
BBX 3 3 1 5
BITMAP
60
C0
C0
ENDCHAR
STARTCHAR quoteright
ENCODING 146
SWIDTH 265 0
DWIDTH 3 0
BBX 3 3 1 5
BITMAP
60
60
C0
ENDCHAR
STARTCHAR quotedblleft
ENCODING 147
SWIDTH 530 0
DWIDTH 6 0
BBX 6 3 1 5
BITMAP
6C
D8
D8
ENDCHAR
STARTCHAR quotedblright
ENCODING 148
SWIDTH 530 0
DWIDTH 6 0
BBX 6 3 1 5
BITMAP
6C
6C
D8
ENDCHAR
STARTCHAR bullet
ENCODING 149
SWIDTH 687 0
DWIDTH 7 0
BBX 3 3 2 2
BITMAP
E0
E0
E0
ENDCHAR
STARTCHAR endash
ENCODING 150
SWIDTH 500 0
DWIDTH 5 0
BBX 4 1 1 3
BITMAP
F0
ENDCHAR
STARTCHAR emdash
ENCODING 151
SWIDTH 1000 0
DWIDTH 10 0
BBX 9 1 1 3
BITMAP
FF80
ENDCHAR
STARTCHAR trademark
ENCODING 153
SWIDTH 901 0
DWIDTH 9 0
BBX 8 3 1 4
BITMAP
FB
5F
55
ENDCHAR
STARTCHAR afii10106
ENCODING 154
SWIDTH 1000 0
DWIDTH 10 0
BBX 11 6 -1 0
BITMAP
1F00
1B40
1BE0
3660
36C0
E380
ENDCHAR
STARTCHAR guilsinglright
ENCODING 155
SWIDTH 386 0
DWIDTH 4 0
BBX 4 5 0 1
BITMAP
40
60
30
60
C0
ENDCHAR
STARTCHAR afii10107
ENCODING 156
SWIDTH 1000 0
DWIDTH 10 0
BBX 9 6 1 0
BITMAP
6C00
6D00
7F80
D980
DB00
CE00
ENDCHAR
STARTCHAR afii10109
ENCODING 157
SWIDTH 700 0
DWIDTH 7 0
BBX 7 9 1 0
BITMAP
0C
18
00
66
6C
78
F0
D8
CC
ENDCHAR
STARTCHAR afii10108
ENCODING 158
SWIDTH 700 0
DWIDTH 7 0
BBX 6 8 1 0
BITMAP
30
F8
6C
7C
6C
C8
D8
D8
ENDCHAR
STARTCHAR afii10193
ENCODING 159
SWIDTH 800 0
DWIDTH 8 0
BBX 7 8 1 -1
BITMAP
66
66
66
CC
CC
CC
FC
30
ENDCHAR
STARTCHAR space
ENCODING 160
SWIDTH 343 0
DWIDTH 3 0
BBX 0 0 0 0
BITMAP
ENDCHAR
STARTCHAR afii10062
ENCODING 161
SWIDTH 800 0
DWIDTH 8 0
BBX 7 9 1 0
BITMAP
1C
00
66
66
64
34
38
30
E0
ENDCHAR
STARTCHAR afii10110
ENCODING 162
SWIDTH 700 0
DWIDTH 7 0
BBX 7 10 0 -2
BITMAP
18
00
66
66
66
6C
68
70
60
C0
ENDCHAR
STARTCHAR afii10057
ENCODING 163
SWIDTH 502 0
DWIDTH 5 0
BBX 5 8 0 -1
BITMAP
18
18
18
38
30
30
70
E0
ENDCHAR
STARTCHAR currency
ENCODING 164
SWIDTH 687 0
DWIDTH 7 0
BBX 8 8 0 -1
BITMAP
41
63
3E
66
66
7C
C6
82
ENDCHAR
STARTCHAR afii10050
ENCODING 165
SWIDTH 600 0
DWIDTH 6 0
BBX 6 8 1 0
BITMAP
0C
7C
60
60
E0
C0
C0
C0
ENDCHAR
STARTCHAR brokenbar
ENCODING 166
SWIDTH 259 0
DWIDTH 4 0
BBX 4 9 1 -1
BITMAP
30
30
20
00
00
00
40
C0
C0
ENDCHAR
STARTCHAR section
ENCODING 167
SWIDTH 687 0
DWIDTH 7 0
BBX 7 8 0 -1
BITMAP
1E
30
38
4C
64
38
18
F0
ENDCHAR
STARTCHAR afii10023
ENCODING 168
SWIDTH 642 0
DWIDTH 7 0
BBX 6 9 1 0
BITMAP
24
24
00
7C
60
F8
C0
C0
F8
ENDCHAR
STARTCHAR copyright
ENCODING 169
SWIDTH 834 0
DWIDTH 9 0
BBX 7 7 2 0
BITMAP
38
44
BA
A2
BA
44
38
ENDCHAR
STARTCHAR afii10053
ENCODING 170
SWIDTH 700 0
DWIDTH 7 0
BBX 6 7 1 0
BITMAP
1C
70
60
F0
C0
E0
78
ENDCHAR
STARTCHAR guillemotleft
ENCODING 171
SWIDTH 633 0
DWIDTH 7 0
BBX 7 5 0 1
BITMAP
36
6C
D8
6C
24
ENDCHAR
STARTCHAR logicalnot
ENCODING 172
SWIDTH 687 0
DWIDTH 7 0
BBX 6 3 1 1
BITMAP
FC
04
04
ENDCHAR
STARTCHAR hyphen
ENCODING 173
SWIDTH 289 0
DWIDTH 3 0
BBX 2 1 1 3
BITMAP
C0
ENDCHAR
STARTCHAR registered
ENCODING 174
SWIDTH 691 0
DWIDTH 7 0
BBX 7 7 0 0
BITMAP
38
44
BA
B2
AA
44
38
ENDCHAR
STARTCHAR afii10056
ENCODING 175
SWIDTH 361 0
DWIDTH 4 0
BBX 4 9 1 0
BITMAP
90
90
00
60
60
E0
C0
C0
C0
ENDCHAR
STARTCHAR degree
ENCODING 176
SWIDTH 241 0
DWIDTH 3 0
BBX 4 3 0 5
BITMAP
60
B0
60
ENDCHAR
STARTCHAR plusminus
ENCODING 177
SWIDTH 687 0
DWIDTH 7 0
BBX 7 6 0 0
BITMAP
08
08
7E
10
10
FC
ENDCHAR
STARTCHAR afii10055
ENCODING 178
SWIDTH 361 0
DWIDTH 4 0
BBX 3 7 1 0
BITMAP
60
60
60
E0
C0
C0
C0
ENDCHAR
STARTCHAR afii10103
ENCODING 179
SWIDTH 343 0
DWIDTH 4 0
BBX 4 8 1 0
BITMAP
30
00
60
60
60
C0
C0
C0
ENDCHAR
STARTCHAR afii10098
ENCODING 180
SWIDTH 500 0
DWIDTH 5 0
BBX 5 7 1 0
BITMAP
18
78
60
60
C0
C0
C0
ENDCHAR
STARTCHAR mu
ENCODING 181
SWIDTH 681 0
DWIDTH 7 0
BBX 7 8 0 -2
BITMAP
36
36
26
6C
7C
6C
C0
C0
ENDCHAR
STARTCHAR paragraph
ENCODING 182
SWIDTH 687 0
DWIDTH 7 0
BBX 6 8 1 -1
BITMAP
7C
F4
E8
68
28
50
50
50
ENDCHAR
STARTCHAR periodcentered
ENCODING 183
SWIDTH 343 0
DWIDTH 7 0
BBX 2 2 3 2
BITMAP
C0
C0
ENDCHAR
STARTCHAR afii10071
ENCODING 184
SWIDTH 612 0
DWIDTH 6 0
BBX 5 9 1 0
BITMAP
48
48
00
38
58
D8
F0
C0
70
ENDCHAR
STARTCHAR afii61352
ENCODING 185
SWIDTH 1100 0
DWIDTH 11 0
BBX 10 7 1 0
BITMAP
6200
7200
72C0
5CC0
DC00
8D80
8C00
ENDCHAR
STARTCHAR afii10101
ENCODING 186
SWIDTH 600 0
DWIDTH 6 0
BBX 5 6 1 0
BITMAP
38
60
F0
C0
C0
70
ENDCHAR
STARTCHAR guillemotright
ENCODING 187
SWIDTH 633 0
DWIDTH 7 0
BBX 7 5 0 1
BITMAP
48
6C
36
6C
D8
ENDCHAR
STARTCHAR afii10105
ENCODING 188
SWIDTH 407 0
DWIDTH 4 0
BBX 6 10 -1 -2
BITMAP
0C
00
18
18
18
30
30
30
60
E0
ENDCHAR
STARTCHAR afii10054
ENCODING 189
SWIDTH 639 0
DWIDTH 7 0
BBX 6 7 1 0
BITMAP
3C
60
60
30
18
18
F0
ENDCHAR
STARTCHAR afii10102
ENCODING 190
SWIDTH 527 0
DWIDTH 6 0
BBX 6 6 0 0
BITMAP
3C
60
70
38
18
F0
ENDCHAR
STARTCHAR afii10104
ENCODING 191
SWIDTH 343 0
DWIDTH 4 0
BBX 4 9 1 0
BITMAP
90
90
00
60
60
60
C0
C0
C0
ENDCHAR
STARTCHAR afii10017
ENCODING 192
SWIDTH 800 0
DWIDTH 8 0
BBX 6 7 1 0
BITMAP
0C
1C
2C
6C
7C
CC
CC
ENDCHAR
STARTCHAR afii10018
ENCODING 193
SWIDTH 700 0
DWIDTH 7 0
BBX 6 7 1 0
BITMAP
7C
60
60
F8
CC
CC
F8
ENDCHAR
STARTCHAR afii10019
ENCODING 194
SWIDTH 700 0
DWIDTH 7 0
BBX 6 7 1 0
BITMAP
78
6C
6C
F8
CC
CC
F8
ENDCHAR
STARTCHAR afii10020
ENCODING 195
SWIDTH 600 0
DWIDTH 6 0
BBX 6 7 1 0
BITMAP
7C
60
60
E0
C0
C0
C0
ENDCHAR
STARTCHAR afii10021
ENCODING 196
SWIDTH 800 0
DWIDTH 8 0
BBX 8 8 0 -1
BITMAP
1F
1B
1B
36
36
66
FF
C6
ENDCHAR
STARTCHAR afii10022
ENCODING 197
SWIDTH 700 0
DWIDTH 7 0
BBX 6 7 1 0
BITMAP
7C
60
60
F8
C0
C0
F8
ENDCHAR
STARTCHAR afii10024
ENCODING 198
SWIDTH 1200 0
DWIDTH 12 0
BBX 12 7 0 0
BITMAP
3330
1B60
0FC0
1F80
36C0
6660
C630
ENDCHAR
STARTCHAR afii10025
ENCODING 199
SWIDTH 700 0
DWIDTH 7 0
BBX 6 7 1 0
BITMAP
38
6C
0C
38
18
D8
70
ENDCHAR
STARTCHAR afii10026
ENCODING 200
SWIDTH 800 0
DWIDTH 8 0
BBX 7 7 1 0
BITMAP
46
4E
5E
5A
F4
E4
C4
ENDCHAR
STARTCHAR afii10027
ENCODING 201
SWIDTH 800 0
DWIDTH 8 0
BBX 7 9 1 0
BITMAP
3C
00
46
4E
5E
5A
F4
E4
C4
ENDCHAR
STARTCHAR afii10028
ENCODING 202
SWIDTH 800 0
DWIDTH 8 0
BBX 7 7 1 0
BITMAP
66
6C
78
F0
D8
CC
C6
ENDCHAR
STARTCHAR afii10029
ENCODING 203
SWIDTH 800 0
DWIDTH 8 0
BBX 8 7 0 0
BITMAP
1F
1B
1B
36
36
66
C6
ENDCHAR
STARTCHAR afii10030
ENCODING 204
SWIDTH 1000 0
DWIDTH 10 0
BBX 9 7 1 0
BITMAP
6180
7380
7D80
D980
9B00
9300
8300
ENDCHAR
STARTCHAR afii10031
ENCODING 205
SWIDTH 800 0
DWIDTH 8 0
BBX 7 7 1 0
BITMAP
66
66
66
FE
CC
CC
CC
ENDCHAR
STARTCHAR afii10032
ENCODING 206
SWIDTH 900 0
DWIDTH 9 0
BBX 8 7 1 0
BITMAP
1E
73
63
C3
C6
CE
78
ENDCHAR
STARTCHAR afii10033
ENCODING 207
SWIDTH 800 0
DWIDTH 8 0
BBX 7 7 1 0
BITMAP
7E
66
66
66
CC
CC
CC
ENDCHAR
STARTCHAR afii10034
ENCODING 208
SWIDTH 700 0
DWIDTH 7 0
BBX 7 7 1 0
BITMAP
7C
66
66
F8
C0
C0
C0
ENDCHAR
STARTCHAR afii10035
ENCODING 209
SWIDTH 700 0
DWIDTH 7 0
BBX 6 7 1 0
BITMAP
1C
70
60
C0
C0
E0
78
ENDCHAR
STARTCHAR afii10036
ENCODING 210
SWIDTH 800 0
DWIDTH 8 0
BBX 6 7 2 0
BITMAP
FC
30
30
70
60
60
60
ENDCHAR
STARTCHAR afii10037
ENCODING 211
SWIDTH 800 0
DWIDTH 8 0
BBX 7 7 1 0
BITMAP
66
66
64
34
38
30
E0
ENDCHAR
STARTCHAR afii10038
ENCODING 212
SWIDTH 1000 0
DWIDTH 10 0
BBX 9 7 1 0
BITMAP
0C00
3F00
6D80
DD80
DB00
7E00
1800
ENDCHAR
STARTCHAR afii10039
ENCODING 213
SWIDTH 700 0
DWIDTH 7 0
BBX 8 7 0 0
BITMAP
33
36
3C
18
3C
6C
CC
ENDCHAR
STARTCHAR afii10040
ENCODING 214
SWIDTH 800 0
DWIDTH 8 0
BBX 7 8 1 -1
BITMAP
66
66
66
CC
CC
CC
FE
0C
ENDCHAR
STARTCHAR afii10041
ENCODING 215
SWIDTH 800 0
DWIDTH 8 0
BBX 6 7 2 0
BITMAP
CC
CC
CC
DC
78
18
18
ENDCHAR
STARTCHAR afii10042
ENCODING 216
SWIDTH 1200 0
DWIDTH 12 0
BBX 11 7 1 0
BITMAP
6660
6660
6660
CCC0
CCC0
CCC0
FFC0
ENDCHAR
STARTCHAR afii10043
ENCODING 217
SWIDTH 1200 0
DWIDTH 12 0
BBX 11 8 1 -1
BITMAP
6660
6660
6660
CCC0
CCC0
CCC0
FFE0
00C0
ENDCHAR
STARTCHAR afii10044
ENCODING 218
SWIDTH 800 0
DWIDTH 8 0
BBX 6 7 2 0
BITMAP
E0
60
60
F8
CC
CC
F8
ENDCHAR
STARTCHAR afii10045
ENCODING 219
SWIDTH 1100 0
DWIDTH 11 0
BBX 10 7 1 0
BITMAP
60C0
60C0
60C0
F980
CD80
CD80
F980
ENDCHAR
STARTCHAR afii10046
ENCODING 220
SWIDTH 700 0
DWIDTH 7 0
BBX 6 7 1 0
BITMAP
60
60
60
F8
CC
CC
F8
ENDCHAR
STARTCHAR afii10047
ENCODING 221
SWIDTH 700 0
DWIDTH 7 0
BBX 6 7 1 0
BITMAP
38
0C
0C
3C
18
38
E0
ENDCHAR
STARTCHAR afii10048
ENCODING 222
SWIDTH 1200 0
DWIDTH 12 0
BBX 11 7 1 0
BITMAP
63C0
6E60
6C60
F860
D8C0
D9C0
CF00
ENDCHAR
STARTCHAR afii10049
ENCODING 223
SWIDTH 800 0
DWIDTH 8 0
BBX 8 7 0 0
BITMAP
1F
33
33
1F
36
66
C6
ENDCHAR
STARTCHAR afii10065
ENCODING 224
SWIDTH 700 0
DWIDTH 7 0
BBX 6 6 1 0
BITMAP
3C
6C
CC
D8
F8
D8
ENDCHAR
STARTCHAR afii10066
ENCODING 225
SWIDTH 700 0
DWIDTH 7 0
BBX 7 8 1 0
BITMAP
1E
30
68
7C
CC
CC
D8
70
ENDCHAR
STARTCHAR afii10067
ENCODING 226
SWIDTH 700 0
DWIDTH 7 0
BBX 7 8 1 0
BITMAP
1C
36
64
58
CC
CC
D8
70
ENDCHAR
STARTCHAR afii10068
ENCODING 227
SWIDTH 600 0
DWIDTH 6 0
BBX 5 6 1 0
BITMAP
70
18
30
60
C0
70
ENDCHAR
STARTCHAR afii10069
ENCODING 228
SWIDTH 700 0
DWIDTH 7 0
BBX 6 8 1 0
BITMAP
30
18
2C
7C
CC
CC
D8
70
ENDCHAR
STARTCHAR afii10070
ENCODING 229
SWIDTH 600 0
DWIDTH 6 0
BBX 5 6 1 0
BITMAP
38
58
D8
F0
C0
70
ENDCHAR
STARTCHAR afii10072
ENCODING 230
SWIDTH 1000 0
DWIDTH 10 0
BBX 11 6 0 0
BITMAP
6660
36C0
1F80
3F00
6D80
CCC0
ENDCHAR
STARTCHAR afii10073
ENCODING 231
SWIDTH 600 0
DWIDTH 6 0
BBX 5 6 1 0
BITMAP
70
18
70
30
30
E0
ENDCHAR
STARTCHAR afii10074
ENCODING 232
SWIDTH 700 0
DWIDTH 7 0
BBX 6 6 1 0
BITMAP
6C
6C
4C
D8
F8
D8
ENDCHAR
STARTCHAR afii10075
ENCODING 233
SWIDTH 700 0
DWIDTH 7 0
BBX 6 8 1 0
BITMAP
18
00
6C
6C
4C
D8
F8
D8
ENDCHAR
STARTCHAR afii10076
ENCODING 234
SWIDTH 700 0
DWIDTH 7 0
BBX 7 6 1 0
BITMAP
66
6C
78
F0
D8
CC
ENDCHAR
STARTCHAR afii10077
ENCODING 235
SWIDTH 700 0
DWIDTH 7 0
BBX 8 6 -1 0
BITMAP
1F
1B
1B
36
36
E6
ENDCHAR
STARTCHAR afii10078
ENCODING 236
SWIDTH 1000 0
DWIDTH 10 0
BBX 9 6 1 0
BITMAP
6180
7380
7D80
BB00
9300
8300
ENDCHAR
STARTCHAR afii10079
ENCODING 237
SWIDTH 700 0
DWIDTH 7 0
BBX 6 6 1 0
BITMAP
6C
6C
7C
D8
D8
D8
ENDCHAR
STARTCHAR afii10080
ENCODING 238
SWIDTH 700 0
DWIDTH 7 0
BBX 6 6 1 0
BITMAP
38
6C
CC
CC
D8
70
ENDCHAR
STARTCHAR afii10081
ENCODING 239
SWIDTH 700 0
DWIDTH 7 0
BBX 6 6 1 0
BITMAP
6C
7C
6C
C8
D8
D8
ENDCHAR
STARTCHAR afii10082
ENCODING 240
SWIDTH 700 0
DWIDTH 7 0
BBX 7 8 0 -2
BITMAP
36
3E
36
66
6C
78
C0
C0
ENDCHAR
STARTCHAR afii10083
ENCODING 241
SWIDTH 600 0
DWIDTH 6 0
BBX 5 6 1 0
BITMAP
38
60
C0
C0
C0
70
ENDCHAR
STARTCHAR afii10084
ENCODING 242
SWIDTH 1000 0
DWIDTH 10 0
BBX 9 6 1 0
BITMAP
6D80
7F80
6D80
C900
DB00
DB00
ENDCHAR
STARTCHAR afii10085
ENCODING 243
SWIDTH 700 0
DWIDTH 7 0
BBX 7 8 0 -2
BITMAP
66
66
66
6C
68
70
60
C0
ENDCHAR
STARTCHAR afii10086
ENCODING 244
SWIDTH 1000 0
DWIDTH 10 0
BBX 9 10 1 -2
BITMAP
0600
0600
3F00
6D80
CD80
D980
DB00
7E00
3000
3000
ENDCHAR
STARTCHAR afii10087
ENCODING 245
SWIDTH 600 0
DWIDTH 6 0
BBX 6 6 0 0
BITMAP
6C
6C
38
70
D8
D8
ENDCHAR
STARTCHAR afii10088
ENCODING 246
SWIDTH 700 0
DWIDTH 7 0
BBX 6 7 1 -1
BITMAP
6C
6C
4C
D8
F8
DC
0C
ENDCHAR
STARTCHAR afii10089
ENCODING 247
SWIDTH 700 0
DWIDTH 7 0
BBX 5 6 2 0
BITMAP
D8
D8
D8
70
30
30
ENDCHAR
STARTCHAR afii10090
ENCODING 248
SWIDTH 1000 0
DWIDTH 10 0
BBX 9 6 1 0
BITMAP
6D80
6D80
4980
DB00
FF00
DB00
ENDCHAR
STARTCHAR afii10091
ENCODING 249
SWIDTH 1000 0
DWIDTH 10 0
BBX 9 7 1 -1
BITMAP
6D80
6D80
4980
DB00
FF00
DB80
0180
ENDCHAR
STARTCHAR afii10092
ENCODING 250
SWIDTH 700 0
DWIDTH 7 0
BBX 6 6 1 0
BITMAP
E0
68
7C
CC
D8
70
ENDCHAR
STARTCHAR afii10093
ENCODING 251
SWIDTH 1100 0
DWIDTH 11 0
BBX 10 6 1 0
BITMAP
60C0
68C0
7CC0
CD80
D980
7180
ENDCHAR
STARTCHAR afii10094
ENCODING 252
SWIDTH 700 0
DWIDTH 7 0
BBX 6 6 1 0
BITMAP
60
68
7C
CC
D8
70
ENDCHAR
STARTCHAR afii10095
ENCODING 253
SWIDTH 600 0
DWIDTH 6 0
BBX 5 6 1 0
BITMAP
70
18
38
18
30
E0
ENDCHAR
STARTCHAR afii10096
ENCODING 254
SWIDTH 1000 0
DWIDTH 10 0
BBX 9 6 1 0
BITMAP
6700
6D80
7980
D980
DB00
CE00
ENDCHAR
STARTCHAR afii10097
ENCODING 255
SWIDTH 700 0
DWIDTH 7 0
BBX 6 6 1 0
BITMAP
3C
6C
6C
38
58
D8
ENDCHAR
STARTCHAR fl
ENCODING -1
SWIDTH 695 0
DWIDTH 8 0
BBX 8 10 1 -2
BITMAP
1F
33
7E
36
66
6C
6C
EC
C0
C0
ENDCHAR
STARTCHAR Zcaron
ENCODING -1
SWIDTH 687 0
DWIDTH 7 0
BBX 6 9 1 0
BITMAP
2C
18
00
7C
18
30
60
C0
F8
ENDCHAR
STARTCHAR oe
ENCODING -1
SWIDTH 1004 0
DWIDTH 10 0
BBX 9 6 1 0
BITMAP
3B80
6D80
CD80
CF00
DC00
7700
ENDCHAR
STARTCHAR Ydieresis
ENCODING -1
SWIDTH 681 0
DWIDTH 7 0
BBX 6 9 2 0
BITMAP
48
48
00
CC
CC
D8
70
60
60
ENDCHAR
STARTCHAR dotlessi
ENCODING -1
SWIDTH 343 0
DWIDTH 4 0
BBX 3 6 1 0
BITMAP
60
60
60
C0
C0
C0
ENDCHAR
STARTCHAR lslash
ENCODING -1
SWIDTH 343 0
DWIDTH 5 0
BBX 6 8 0 0
BITMAP
18
18
30
3C
F0
20
60
60
ENDCHAR
STARTCHAR Lslash
ENCODING -1
SWIDTH 623 0
DWIDTH 6 0
BBX 6 7 0 0
BITMAP
30
30
3C
F0
60
60
7C
ENDCHAR
STARTCHAR fi
ENCODING -1
SWIDTH 695 0
DWIDTH 8 0
BBX 7 10 1 -2
BITMAP
1E
30
7E
36
66
6C
6C
CC
C0
C0
ENDCHAR
STARTCHAR OE
ENCODING -1
SWIDTH 1103 0
DWIDTH 11 0
BBX 10 7 1 0
BITMAP
1FC0
6600
6600
C780
CC00
CC00
7F80
ENDCHAR
STARTCHAR caron
ENCODING -1
SWIDTH 663 0
DWIDTH 7 0
BBX 4 2 3 7
BITMAP
B0
60
ENDCHAR
STARTCHAR ogonek
ENCODING -1
SWIDTH 663 0
DWIDTH 7 0
BBX 3 2 2 -2
BITMAP
80
60
ENDCHAR
STARTCHAR hungarumlaut
ENCODING -1
SWIDTH 663 0
DWIDTH 7 0
BBX 5 2 2 7
BITMAP
D8
90
ENDCHAR
STARTCHAR dotaccent
ENCODING -1
SWIDTH 663 0
DWIDTH 7 0
BBX 2 2 4 7
BITMAP
C0
C0
ENDCHAR
STARTCHAR breve
ENCODING -1
SWIDTH 663 0
DWIDTH 7 0
BBX 4 2 3 7
BITMAP
90
60
ENDCHAR
STARTCHAR tilde
ENCODING -1
SWIDTH 663 0
DWIDTH 7 0
BBX 5 2 2 7
BITMAP
68
B0
ENDCHAR
STARTCHAR circumflex
ENCODING -1
SWIDTH 663 0
DWIDTH 7 0
BBX 4 2 3 7
BITMAP
60
B0
ENDCHAR
STARTCHAR scaron
ENCODING -1
SWIDTH 527 0
DWIDTH 6 0
BBX 6 9 0 0
BITMAP
2C
18
00
3C
60
70
38
18
F0
ENDCHAR
STARTCHAR ring
ENCODING -1
SWIDTH 663 0
DWIDTH 7 0
BBX 4 3 3 6
BITMAP
60
B0
60
ENDCHAR
STARTCHAR florin
ENCODING -1
SWIDTH 687 0
DWIDTH 7 0
BBX 6 8 1 -1
BITMAP
1C
30
60
F8
60
60
C0
C0
ENDCHAR
STARTCHAR fraction
ENCODING -1
SWIDTH 130 0
DWIDTH 5 0
BBX 6 7 0 0
BITMAP
0C
18
18
30
60
60
C0
ENDCHAR
STARTCHAR Scaron
ENCODING -1
SWIDTH 639 0
DWIDTH 7 0
BBX 6 9 1 0
BITMAP
2C
18
00
3C
60
70
38
18
F0
ENDCHAR
STARTCHAR zcaron
ENCODING -1
SWIDTH 630 0
DWIDTH 7 0
BBX 6 9 1 0
BITMAP
2C
18
00
7C
0C
38
70
C0
F8
ENDCHAR
ENDFONT
